<svg width="14" height="12" viewBox="0 0 14 12" fill="none" xmlns="http://www.w3.org/2000/svg"><path d="M1.84521 11.3334H1.66683C0.93045 11.3334 0.333496 10.7365 0.333496 10.0001V2.00008C0.333496 1.2637 0.93045 0.666748 1.66683 0.666748H12.3335C13.0699 0.666748 13.6668 1.2637 13.6668 2.00008V10.0001C13.6668 10.7365 13.0699 11.3334 12.3335 11.3334H12.1551C11.9246 11.7319 11.4937 12.0001 11.0002 12.0001C10.5066 12.0001 10.0757 11.7319 9.84521 11.3334H4.15512C3.92458 11.7319 3.49368 12.0001 3.00016 12.0001C2.50664 12.0001 2.07575 11.7319 1.84521 11.3334ZM1.66683 2.00008V10.0001H12.3335V2.00008H1.66683ZM3.00016 6.00008H11.0002V8.66675H3.00016V6.00008ZM3.00016 3.33341H6.3335V4.66675H3.00016V3.33341ZM5.66683 6.66675V7.33341H8.3335V6.66675H5.66683ZM8.3335 4.66675C7.96531 4.66675 7.66683 4.36827 7.66683 4.00008C7.66683 3.63189 7.96531 3.33341 8.3335 3.33341C8.70168 3.33341 9.00016 3.63189 9.00016 4.00008C9.00016 4.36827 8.70168 4.66675 8.3335 4.66675ZM10.3335 4.66675C9.96531 4.66675 9.66683 4.36827 9.66683 4.00008C9.66683 3.63189 9.96531 3.33341 10.3335 3.33341C10.7017 3.33341 11.0002 3.63189 11.0002 4.00008C11.0002 4.36827 10.7017 4.66675 10.3335 4.66675Z" fill="#EFEFEF"/></svg>
